<svg xmlns="http://www.w3.org/2000/svg" xmlns:xlink="http://www.w3.org/1999/xlink" version="1.1" x="0px" y="0px" viewBox="0 0 874 451.37" style="enable-background:new 0 0 874 451.37;" xml:space="preserve">
<style type="text/css">
	.st0{fill:#55565B;}
	.st1{fill:#EF2B2D;}
	.st2{fill:#00A0DC;}
	.st3{fill:#FFFFFF;}
	.st4{fill:#CACAC7;}
</style>
<g id="Синий_фон">
</g>
<g id="Слой_2">
	<g>
		<path class="st0" d="M112.55,111.19c0,2.77-0.51,5.17-1.51,7.19c-1.01,2.02-2.31,3.72-3.92,5.11c-1.6,1.39-3.41,2.46-5.43,3.22    c-2.01,0.76-4.05,1.23-6.13,1.42v5.21H85.25v-5.21h-0.1c-3.12-0.31-5.76-0.99-7.92-2.03c-2.17-1.04-3.93-2.38-5.3-4.02    c-1.37-1.64-2.35-3.57-2.96-5.78c-0.6-2.21-0.9-4.64-0.9-7.29v-21.3c0-2.71,0.49-5.11,1.48-7.19c0.98-2.08,2.29-3.85,3.91-5.3    c1.63-1.45,3.47-2.55,5.54-3.31c2.06-0.76,4.15-1.14,6.25-1.14v-3.31h10.31l0.1,3.31c2.07,0.13,4.12,0.57,6.14,1.32    c2.01,0.76,3.82,1.85,5.42,3.27c1.61,1.43,2.9,3.17,3.88,5.25c0.97,2.09,1.46,4.48,1.46,7.19V111.19z M85.25,79.11    c-2.3,0.32-4.11,1.1-5.44,2.37c-1.34,1.26-2.01,3.09-2.01,5.49v25.17c0,1.2,0.22,2.26,0.67,3.17c0.44,0.91,1.02,1.69,1.72,2.32    c0.7,0.63,1.49,1.12,2.39,1.47c0.89,0.35,1.78,0.55,2.67,0.62V79.11z M103.01,86.97c0-2.4-0.71-4.26-2.13-5.59    c-1.41-1.32-3.18-2.08-5.32-2.27l0.1,40.6c0.82-0.13,1.66-0.38,2.54-0.76c0.88-0.37,1.68-0.88,2.4-1.51    c0.72-0.63,1.3-1.39,1.74-2.27c0.44-0.88,0.66-1.89,0.66-3.03V86.97z"/>
		<path class="st0" d="M163.34,116.49c0,5.74-1.3,10.08-3.9,13.01c-2.6,2.93-6.69,4.4-12.28,4.4c-5.58,0-9.65-1.4-12.19-4.21    c-2.54-2.8-3.8-6.86-3.8-12.16V84.41c0-2.58,0.3-4.95,0.9-7.1c0.6-2.14,1.53-3.99,2.8-5.53c1.27-1.55,2.94-2.75,5-3.59    c2.07-0.85,4.52-1.28,7.38-1.28c3.05,0,5.6,0.39,7.66,1.18c2.06,0.79,3.71,1.94,4.95,3.45c1.24,1.51,2.13,3.35,2.67,5.49    c0.54,2.14,0.81,4.58,0.81,7.29V116.49z M153.03,83.56c0-1.83-0.4-3.47-1.19-4.92c-0.8-1.45-2.31-2.18-4.53-2.18    c-1.22,0-2.2,0.27-2.96,0.81c-0.77,0.54-1.35,1.2-1.77,1.99c-0.42,0.79-0.71,1.67-0.86,2.65c-0.16,0.98-0.24,1.88-0.24,2.7v33.13    c0,1.7,0.43,3.23,1.29,4.59c0.86,1.35,2.34,2.03,4.44,2.03c2.1,0,3.59-0.71,4.49-2.13c0.89-1.42,1.33-3.14,1.33-5.16V83.56z"/>
		<path class="st0" d="M204.97,133.34v-28.77h-11.85v28.77h-10.31V67.47h10.31v27.54h11.85V67.47h10.31v65.87H204.97z"/>
		<path class="st0" d="M239.62,133.34v12.5h-8.68v-21.01l3.91-0.85c1.78-1.89,2.99-4.09,3.63-6.58c0.64-2.49,1.02-5.79,1.14-9.89    l1.15-40.03h29.78v56.6h4.2v21.77h-8.68v-12.5H239.62z M248.89,107.44c-0.13,3.78-0.38,7.04-0.77,9.78    c-0.38,2.74-1.11,5.02-2.19,6.85h14.32V77.03h-10.6L248.89,107.44z"/>
		<path class="st0" d="M336.62,66.9c2.74,0,5.09,0.37,7.07,1.13c1.97,0.75,3.61,1.8,4.92,3.14c1.3,1.34,2.26,2.94,2.87,4.79    c0.6,1.85,0.9,3.88,0.9,6.09l-10.03,2.56c0-2.39-0.46-4.35-1.37-5.86c-0.92-1.52-2.38-2.27-4.4-2.27c-1.2,0-2.18,0.25-2.93,0.76    c-0.76,0.51-1.34,1.15-1.75,1.94c-0.41,0.79-0.7,1.65-0.86,2.56c-0.15,0.92-0.23,1.78-0.23,2.61v33.48c0,0.63,0.06,1.32,0.19,2.08    c0.12,0.76,0.39,1.47,0.81,2.13c0.41,0.66,0.98,1.22,1.7,1.66c0.72,0.45,1.65,0.67,2.8,0.67c3.79,0,5.71-2.71,5.77-8.14    c1.72,0.31,3.44,0.58,5.16,0.8c1.72,0.22,3.44,0.46,5.16,0.71c-0.13,4.98-1.51,8.93-4.16,11.83c-2.64,2.91-6.54,4.36-11.69,4.36    c-5.47,0-9.51-1.37-12.12-4.12c-2.61-2.75-3.92-6.77-3.92-12.07V84.88c0-2.46,0.27-4.78,0.81-6.95c0.54-2.18,1.45-4.09,2.73-5.73    c1.27-1.64,2.93-2.93,5.01-3.88C331.1,67.37,333.62,66.9,336.62,66.9z"/>
		<path class="st0" d="M401.45,116.49c0,5.74-1.31,10.08-3.91,13.01c-2.6,2.93-6.7,4.4-12.28,4.4c-5.59,0-9.65-1.4-12.19-4.21    c-2.53-2.8-3.8-6.86-3.8-12.16V84.41c0-2.58,0.3-4.95,0.9-7.1c0.61-2.14,1.54-3.99,2.81-5.53c1.28-1.55,2.94-2.75,5-3.59    c2.06-0.85,4.52-1.28,7.37-1.28c3.05,0,5.6,0.39,7.67,1.18c2.06,0.79,3.71,1.94,4.94,3.45c1.24,1.51,2.13,3.35,2.67,5.49    c0.54,2.14,0.81,4.58,0.81,7.29V116.49z M391.14,83.56c0-1.83-0.4-3.47-1.2-4.92c-0.79-1.45-2.3-2.18-4.53-2.18    c-1.21,0-2.19,0.27-2.96,0.81c-0.77,0.54-1.36,1.2-1.77,1.99c-0.42,0.79-0.71,1.67-0.87,2.65c-0.16,0.98-0.23,1.88-0.23,2.7v33.13    c0,1.7,0.43,3.23,1.29,4.59c0.86,1.35,2.34,2.03,4.44,2.03c2.1,0,3.59-0.71,4.48-2.13c0.89-1.42,1.34-3.14,1.34-5.16V83.56z"/>
		<path class="st0" d="M425.41,133.34v12.5h-8.69v-21.01l3.92-0.85c1.78-1.89,2.99-4.09,3.63-6.58c0.63-2.49,1.02-5.79,1.14-9.89    l1.14-40.03h29.79v56.6h4.2v21.77h-8.69v-12.5H425.41z M434.67,107.44c-0.13,3.78-0.39,7.04-0.77,9.78    c-0.38,2.74-1.11,5.02-2.19,6.85h14.32V77.03h-10.6L434.67,107.44z"/>
		<path class="st0" d="M477.25,133.34V67.47h29.5v9.56h-19.19v17.98h16.7v9.75h-16.7v19.02h19.19v9.56H477.25z"/>
		<path class="st0" d="M547.04,92.07l-13.94,41.26h-9.93V67.47h10.03v41.74h0.38l13.84-41.74h10.03v65.87h-10.12V92.07H547.04z     M534.63,52.51c0.06,0.7,0.27,1.4,0.62,2.13c0.35,0.73,0.8,1.4,1.34,2.03c0.54,0.63,1.16,1.16,1.86,1.57    c0.7,0.41,1.5,0.61,2.38,0.61c0.96,0,1.8-0.2,2.53-0.61c0.74-0.41,1.35-0.93,1.87-1.57c0.51-0.63,0.9-1.3,1.19-2.03    c0.28-0.73,0.43-1.43,0.43-2.13h7.54c-0.13,1.33-0.48,2.76-1.06,4.31c-0.57,1.54-1.42,2.96-2.53,4.26    c-1.12,1.29-2.48,2.36-4.11,3.22c-1.62,0.85-3.58,1.28-5.87,1.28c-2.48,0-4.58-0.42-6.3-1.28c-1.72-0.85-3.12-1.93-4.21-3.22    c-1.08-1.3-1.88-2.72-2.38-4.26c-0.52-1.55-0.8-2.98-0.86-4.31H534.63z"/>
		<path class="st0" d="M592.58,66.9c2.74,0,5.1,0.37,7.06,1.13c1.97,0.75,3.61,1.8,4.92,3.14c1.3,1.34,2.26,2.94,2.86,4.79    c0.61,1.85,0.91,3.88,0.91,6.09l-10.02,2.56c0-2.39-0.46-4.35-1.37-5.86c-0.92-1.52-2.39-2.27-4.4-2.27    c-1.2,0-2.18,0.25-2.93,0.76c-0.76,0.51-1.35,1.15-1.75,1.94c-0.41,0.79-0.7,1.65-0.85,2.56c-0.16,0.92-0.24,1.78-0.24,2.61v33.48    c0,0.63,0.06,1.32,0.19,2.08c0.12,0.76,0.39,1.47,0.8,2.13c0.41,0.66,0.98,1.22,1.7,1.66c0.73,0.45,1.66,0.67,2.79,0.67    c3.79,0,5.71-2.71,5.78-8.14c1.72,0.31,3.43,0.58,5.16,0.8c1.72,0.22,3.44,0.46,5.15,0.71c-0.13,4.98-1.51,8.93-4.15,11.83    c-2.64,2.91-6.54,4.36-11.69,4.36c-5.47,0-9.52-1.37-12.12-4.12c-2.61-2.75-3.92-6.77-3.92-12.07V84.88    c0-2.46,0.27-4.78,0.81-6.95c0.54-2.18,1.44-4.09,2.72-5.73c1.27-1.64,2.94-2.93,5.01-3.88C587.06,67.37,589.59,66.9,592.58,66.9z    "/>
		<path class="st0" d="M642.13,77.03v56.31h-10.31V77.03h-10.69v-9.56h31.69v9.56H642.13z"/>
		<path class="st0" d="M692.44,98.89c2.93,0.94,4.94,2.74,6.02,5.39c1.09,2.65,1.62,5.67,1.62,9.08c0,6.88-1.48,11.92-4.43,15.15    c-2.97,3.22-7.5,4.82-13.61,4.82h-13.75V67.47h14.51c5.86,0,10.11,1.53,12.76,4.59c2.64,3.06,3.96,7.49,3.96,13.29    c0,3.03-0.53,5.68-1.57,7.96c-1.06,2.27-2.89,3.97-5.5,5.11V98.89z M689.68,85.55c0-3.03-0.61-5.21-1.81-6.53    c-1.21-1.32-3.22-1.99-6.02-1.99h-3.24v17.04h3.34c2.67,0,4.62-0.73,5.87-2.18C689.05,90.43,689.68,88.32,689.68,85.55z     M690.24,112.52c0-3.09-0.56-5.39-1.71-6.91c-1.15-1.51-3.16-2.27-6.02-2.27h-3.91v20.44h4.1c1.65,0,2.97-0.3,3.96-0.9    c0.99-0.6,1.75-1.4,2.29-2.41c0.54-1.01,0.89-2.21,1.06-3.59C690.17,115.49,690.24,114.03,690.24,112.52z"/>
		<path class="st0" d="M742.85,92.07l-13.93,41.26h-9.93V67.47h10.03v41.74h0.38l13.84-41.74h10.03v65.87h-10.12V92.07H742.85z"/>
		<path class="st0" d="M770.35,133.34l3.72-20.93c0.44-2.21,1.15-4.22,2.1-6.01c0.95-1.8,2.29-3.21,4.01-4.22    c-3.06-1.26-5.15-3.17-6.3-5.72c-1.14-2.55-1.72-5.63-1.72-9.22c0-6.49,1.58-11.41,4.73-14.75c3.14-3.34,7.46-5.01,12.93-5.01    h15.18v65.87H794.7v-28.11h-2.67c-1.78,0-3.43,0.69-4.92,2.09c-1.5,1.39-2.56,3.85-3.2,7.38l-3.15,18.64H770.35z M790.68,77.03    c-3.11,0-5.29,0.93-6.54,2.79c-1.24,1.86-1.85,4.31-1.85,7.33c0,3.22,0.78,5.44,2.34,6.67c1.55,1.23,3.55,1.85,5.96,1.85h4.1    V77.03H790.68z"/>
		<path class="st0" d="M99.14,188.17l-17.28,51.17H69.54v-81.68h12.43v51.75h0.48l17.16-51.75h12.43v81.68H99.5v-51.17H99.14z"/>
		<path class="st0" d="M174.55,239.34v-35.67h-14.68v35.67h-12.79v-81.68h12.79v34.15h14.68v-34.15h12.79v81.68H174.55z"/>
		<path class="st0" d="M250.2,239.34v-35.67h-14.69v35.67h-12.78v-81.68h12.78v34.15h14.69v-34.15h12.78v81.68H250.2z"/>
		<path class="st0" d="M337.57,218.45c0,7.12-1.61,12.5-4.85,16.14c-3.22,3.64-8.29,5.45-15.23,5.45c-6.92,0-11.95-1.74-15.1-5.22    c-3.15-3.48-4.72-8.51-4.72-15.08v-41.07c0-3.21,0.37-6.14,1.13-8.8c0.74-2.66,1.9-4.95,3.48-6.87c1.57-1.92,3.64-3.4,6.2-4.46    c2.55-1.06,5.6-1.59,9.14-1.59c3.78,0,6.95,0.48,9.51,1.47c2.55,0.98,4.6,2.4,6.14,4.28c1.53,1.88,2.63,4.15,3.3,6.81    c0.67,2.66,1.01,5.67,1.01,9.03V218.45z M324.78,177.61c0-2.27-0.5-4.3-1.48-6.1c-0.99-1.8-2.86-2.7-5.62-2.7    c-1.51,0-2.72,0.33-3.67,1c-0.95,0.66-1.68,1.48-2.19,2.46c-0.52,0.98-0.87,2.07-1.06,3.29c-0.2,1.21-0.29,2.33-0.29,3.35v41.07    c0,2.11,0.53,4.01,1.59,5.69c1.07,1.68,2.91,2.52,5.51,2.52c2.61,0,4.46-0.88,5.56-2.64c1.1-1.76,1.66-3.89,1.66-6.4V177.61z"/>
		<path class="st0" d="M402.44,196.62c3.63,1.18,6.12,3.41,7.46,6.69c1.34,3.29,2.01,7.04,2.01,11.26c0,8.53-1.84,14.79-5.5,18.78    c-3.67,3.99-9.29,5.99-16.87,5.99h-17.05v-81.68h18.01c7.25,0,12.52,1.9,15.8,5.69c3.27,3.8,4.92,9.29,4.92,16.49    c0,3.76-0.66,7.04-1.96,9.86c-1.3,2.82-3.57,4.93-6.8,6.34V196.62z M399.01,180.07c0-3.76-0.75-6.46-2.24-8.1    c-1.5-1.64-3.99-2.46-7.46-2.46h-4.03v21.12h4.14c3.32,0,5.74-0.9,7.29-2.7C398.24,186.13,399.01,183.52,399.01,180.07z     M399.72,213.52c0-3.83-0.71-6.69-2.13-8.57c-1.42-1.88-3.91-2.82-7.46-2.82h-4.86v25.35h5.09c2.05,0,3.69-0.37,4.91-1.12    c1.23-0.74,2.17-1.74,2.85-2.99c0.67-1.25,1.1-2.74,1.3-4.46C399.62,217.2,399.72,215.4,399.72,213.52z"/>
		<path class="st0" d="M476.2,239.34l-3.2-17.01h-15.15c-0.56,2.81-1.09,5.65-1.6,8.5c-0.51,2.86-1,5.7-1.48,8.51h-13.02    c2.76-13.69,5.52-27.3,8.28-40.84c2.76-13.54,5.53-27.15,8.29-40.84h14.21l16.69,81.68H476.2z M465.07,176.55    c-0.79,5.63-1.62,11.25-2.48,16.84c-0.88,5.59-1.82,11.29-2.85,17.08h11.24l-5.33-33.92H465.07z"/>
		<path class="st0" d="M559.54,157.66v69.82h5.33v27.34h-10.66v-15.49h-34.57v-81.68h12.79v69.82h14.32v-69.82H559.54z"/>
		<path class="st0" d="M624.89,188.17l-17.28,51.17H595.3v-81.68h12.43v51.75h0.47l17.17-51.75h12.43v81.68h-12.55v-51.17H624.89z"/>
		<path class="st0" d="M669.76,239.34l4.62-25.96c0.55-2.74,1.42-5.23,2.6-7.46c1.19-2.23,2.85-3.98,4.97-5.23    c-3.78-1.56-6.39-3.93-7.81-7.09c-1.42-3.17-2.13-6.98-2.13-11.44c0-8.05,1.95-14.15,5.85-18.29c3.91-4.14,9.26-6.21,16.05-6.21    h18.82v81.68h-12.78v-34.86h-3.31c-2.22,0-4.25,0.86-6.1,2.59c-1.86,1.72-3.18,4.77-3.97,9.16l-3.91,23.12H669.76z M694.98,169.51    c-3.87,0-6.58,1.15-8.11,3.46c-1.54,2.31-2.31,5.33-2.31,9.09c0,3.99,0.97,6.75,2.9,8.27c1.93,1.52,4.4,2.29,7.4,2.29h5.09v-23.11    H694.98z"/>
		<path class="st0" d="M771.88,221.5l-5.9-15.14l-5.07-14.32h-0.6v47.29h-12.78v-81.68h12.43l8.93,23.23l6.47,17.72h0.59l6.63-18.19    l8.88-22.77h12.3v81.68h-12.78v-47.06h-0.47l-5.18,14.55l-5.78,14.67H771.88z"/>
		<path class="st1" d="M143.04,264.14H69.86c97.31,102.98,236.58,142.1,353.63,147.2c5.46,0.23,10.85,0.38,16.21,0.47    c1.61,0.02,3.21,0.04,4.81,0.05c4.88,0.05,9.75,0.07,14.53,0.01c75.95-1.1,160.31-17.62,233.68-56.72    c42.09-22.44,80.58-52.29,111.76-91c0,0,0,0-0.01,0.01C626.96,437.82,272,407.75,143.04,264.14z"/>
		<path class="st2" d="M804.47,264.15c-0.09,0.05-0.17,0.11-0.25,0.17c-2.78,1.94-5.37,3.69-7.81,5.31    c-1.41,0.93-2.74,1.81-4.05,2.64c-1.09,0.71-2.21,1.37-3.3,2.07c-3.68,2.36-7.38,4.71-11.11,6.96c-1.43,0.86-2.87,1.68-4.31,2.53    c-3.81,2.25-7.63,4.47-11.48,6.6c-1.41,0.78-2.83,1.51-4.24,2.28c-3.92,2.12-7.84,4.22-11.8,6.22c-1.39,0.7-2.8,1.36-4.19,2.06    c-4.01,1.99-8.02,3.95-12.07,5.82c-1.38,0.64-2.77,1.23-4.16,1.86c-4.09,1.85-8.18,3.67-12.3,5.41c-1.39,0.58-2.79,1.12-4.18,1.69    c-4.14,1.7-8.28,3.38-12.45,4.96c-1.42,0.54-2.85,1.04-4.27,1.56c-4.16,1.54-8.33,3.07-12.52,4.5c-1.46,0.51-2.94,0.96-4.4,1.44    c-4.16,1.38-8.33,2.76-12.51,4.04c-1.53,0.47-3.07,0.88-4.6,1.34c-4.13,1.22-8.27,2.44-12.41,3.56c-1.63,0.44-3.26,0.82-4.89,1.25    c-4.07,1.06-8.13,2.12-12.21,3.08c-1.75,0.41-3.51,0.77-5.26,1.17c-3.97,0.9-7.94,1.8-11.91,2.61c-1.89,0.38-3.78,0.7-5.68,1.07    c-3.84,0.74-7.68,1.49-11.52,2.15c-2.12,0.36-4.24,0.65-6.36,0.99c-3.62,0.58-7.24,1.18-10.86,1.68c-2.44,0.35-4.87,0.6-7.31,0.91    c-3.3,0.42-6.6,0.87-9.9,1.23c-3.04,0.33-6.07,0.57-9.1,0.85c-2.69,0.25-5.39,0.54-8.08,0.75c-5.73,0.45-11.44,0.81-17.14,1.09    c-0.01,0-0.02,0-0.02,0c-3.34,0.16-6.67,0.29-9.99,0.39c-0.06,0-0.11,0.01-0.17,0.01c-3.28,0.1-6.54,0.17-9.81,0.21    c-0.11,0-0.22,0-0.33,0.01c-3.2,0.04-6.4,0.05-9.59,0.04c-0.19,0-0.37-0.01-0.55-0.01c-3.12-0.02-6.24-0.06-9.35-0.13    c-0.23,0-0.46-0.01-0.69-0.02c-3.06-0.07-6.11-0.16-9.16-0.28c-0.28-0.01-0.56-0.02-0.85-0.04c-2.99-0.12-5.97-0.27-8.94-0.44    c-0.34-0.02-0.67-0.04-1.01-0.07c-2.91-0.17-5.81-0.36-8.7-0.58c-0.42-0.03-0.84-0.07-1.27-0.1c-2.81-0.22-5.61-0.45-8.4-0.71    c-0.47-0.04-0.94-0.1-1.41-0.14c-2.73-0.26-5.46-0.54-8.17-0.84c-0.54-0.06-1.08-0.13-1.62-0.19c-2.64-0.3-5.28-0.61-7.91-0.96    c-0.58-0.07-1.16-0.15-1.74-0.23c-2.57-0.34-5.13-0.69-7.68-1.07c-0.65-0.1-1.29-0.2-1.94-0.3c-2.47-0.38-4.94-0.76-7.4-1.17    c-0.71-0.12-1.41-0.25-2.12-0.37c-2.39-0.41-4.77-0.82-7.14-1.27c-0.76-0.14-1.5-0.29-2.26-0.43c-2.31-0.44-4.61-0.89-6.9-1.36    c-0.82-0.17-1.63-0.35-2.45-0.52c-2.21-0.46-4.41-0.93-6.6-1.43c-0.88-0.2-1.75-0.41-2.63-0.61c-2.12-0.49-4.23-0.98-6.33-1.49    c-0.92-0.23-1.83-0.46-2.75-0.7c-2.04-0.51-4.07-1.02-6.09-1.56c-0.99-0.26-1.96-0.54-2.94-0.81c-1.93-0.52-3.87-1.05-5.78-1.6    c-1.03-0.29-2.04-0.6-3.07-0.91c-1.85-0.54-3.72-1.09-5.55-1.66c-1.04-0.32-2.07-0.66-3.11-0.99c-1.8-0.57-3.59-1.14-5.37-1.73    c-1.08-0.36-2.15-0.73-3.22-1.1c-1.71-0.59-3.43-1.16-5.12-1.77c-1.12-0.39-2.22-0.81-3.34-1.22c-1.63-0.6-3.26-1.18-4.87-1.8    c-1.16-0.44-2.29-0.89-3.44-1.34c-1.55-0.61-3.1-1.2-4.63-1.82c-1.18-0.48-2.33-0.97-3.5-1.46c-1.48-0.61-2.96-1.22-4.42-1.85    c-1.2-0.52-2.38-1.06-3.57-1.58c-1.4-0.62-2.82-1.23-4.2-1.87c-1.21-0.56-2.4-1.13-3.6-1.69c-1.34-0.64-2.69-1.25-4.01-1.9    c-1.23-0.6-2.44-1.22-3.66-1.83c-1.26-0.63-2.54-1.25-3.78-1.9c-1.23-0.64-2.44-1.29-3.66-1.94c-1.21-0.64-2.43-1.28-3.63-1.93    c-1.23-0.67-2.42-1.36-3.63-2.05c-1.15-0.65-2.32-1.3-3.47-1.96c-1.23-0.72-2.43-1.45-3.64-2.18c-1.09-0.65-2.2-1.3-3.28-1.97    c-1.21-0.74-2.38-1.51-3.57-2.26c-1.06-0.67-2.12-1.33-3.16-2.01c-1.23-0.8-2.42-1.62-3.63-2.44c-0.97-0.66-1.95-1.3-2.91-1.96    c-1.24-0.86-2.44-1.74-3.66-2.61c-0.89-0.64-1.81-1.28-2.69-1.93c-1.2-0.89-2.38-1.8-3.56-2.7c-0.86-0.66-1.74-1.31-2.59-1.97    c-1.21-0.95-2.39-1.92-3.58-2.89c-0.78-0.64-1.59-1.27-2.36-1.91c-1.26-1.05-2.47-2.11-3.7-3.18c-0.67-0.58-1.36-1.15-2.03-1.74    c-1.87-1.66-3.71-3.35-5.51-5.05h-75.37C272,407.75,626.96,437.82,804.47,264.15z"/>
		<path class="st3" d="M518.91,331.45c-1.38,0.01-2.77,0.01-4.14,0.01c-0.62,0-1.22-0.01-1.84-0.01c-2.01-0.01-4.01-0.02-6-0.06    c-1.09-0.01-2.18-0.04-3.27-0.06c-1.97-0.04-3.92-0.09-5.87-0.15c-1.1-0.03-2.19-0.07-3.28-0.12c-1.92-0.07-3.83-0.15-5.73-0.25    c-1.1-0.06-2.2-0.12-3.3-0.18c-1.87-0.1-3.73-0.21-5.58-0.34c-1.11-0.07-2.21-0.15-3.32-0.23c-1.81-0.14-3.62-0.27-5.42-0.43    c-1.13-0.1-2.25-0.2-3.37-0.3c-1.76-0.17-3.51-0.33-5.25-0.51c-1.13-0.12-2.25-0.24-3.37-0.36c-1.7-0.19-3.4-0.38-5.09-0.59    c-1.15-0.14-2.29-0.29-3.43-0.44c-1.64-0.21-3.27-0.43-4.89-0.65c-1.16-0.17-2.31-0.34-3.47-0.51c-1.58-0.23-3.16-0.48-4.73-0.72    c-1.16-0.19-2.32-0.39-3.48-0.59c-1.53-0.26-3.05-0.51-4.56-0.79c-1.18-0.21-2.34-0.44-3.51-0.66c-1.46-0.28-2.93-0.56-4.38-0.85    c-1.19-0.24-2.36-0.49-3.54-0.73c-1.4-0.3-2.81-0.59-4.2-0.9c-1.2-0.27-2.39-0.55-3.58-0.83c-1.33-0.31-2.67-0.62-3.99-0.94    c-1.22-0.3-2.42-0.6-3.63-0.91c-1.27-0.33-2.54-0.65-3.79-0.98c-1.23-0.33-2.43-0.67-3.65-1.01c-1.21-0.33-2.42-0.67-3.62-1.01    c-1.23-0.36-2.43-0.73-3.64-1.09c-1.16-0.35-2.32-0.7-3.47-1.06c-1.22-0.38-2.42-0.78-3.63-1.18c-1.1-0.36-2.22-0.72-3.31-1.09    c-1.22-0.41-2.42-0.84-3.62-1.27c-1.05-0.37-2.11-0.74-3.15-1.12c-1.21-0.44-2.4-0.9-3.6-1.36c-1-0.38-2.01-0.75-3-1.14    c-1.2-0.48-2.38-0.96-3.57-1.44c-0.96-0.39-1.92-0.77-2.86-1.17c-1.18-0.5-2.35-1.01-3.51-1.52c-0.91-0.4-1.83-0.79-2.73-1.2    c-1.18-0.53-2.34-1.08-3.5-1.63c-0.85-0.4-1.72-0.8-2.56-1.2c-1.17-0.56-2.32-1.15-3.47-1.72c-0.8-0.41-1.62-0.8-2.41-1.21    c-1.16-0.6-2.29-1.22-3.43-1.83c-0.75-0.41-1.52-0.81-2.26-1.22c-1.13-0.63-2.24-1.27-3.35-1.91c-0.72-0.41-1.45-0.82-2.16-1.24    c-1.11-0.66-2.19-1.33-3.28-2c-0.67-0.41-1.36-0.82-2.02-1.24c-1.08-0.69-2.14-1.39-3.2-2.08c-0.64-0.42-1.29-0.83-1.91-1.26    c-1.07-0.72-2.1-1.46-3.14-2.2c-0.58-0.41-1.18-0.81-1.75-1.23c-1.04-0.75-2.05-1.52-3.07-2.29c-0.54-0.41-1.1-0.81-1.64-1.23    c-1.04-0.81-2.05-1.64-3.06-2.46c-0.47-0.38-0.96-0.76-1.43-1.14c-1.11-0.93-2.19-1.87-3.26-2.81c-0.34-0.3-0.69-0.58-1.02-0.88    c-1.39-1.25-2.75-2.51-4.07-3.78h-63.97h-13.21c1.8,1.7,3.63,3.39,5.51,5.05c0.66,0.59,1.35,1.16,2.03,1.74    c1.23,1.07,2.44,2.14,3.7,3.18c0.77,0.64,1.58,1.27,2.36,1.91c1.19,0.96,2.36,1.94,3.58,2.89c0.85,0.67,1.73,1.31,2.59,1.97    c1.18,0.9,2.35,1.81,3.56,2.7c0.88,0.65,1.8,1.28,2.69,1.93c1.22,0.87,2.42,1.75,3.66,2.61c0.96,0.66,1.94,1.3,2.91,1.96    c1.21,0.81,2.4,1.64,3.63,2.44c1.04,0.68,2.11,1.34,3.16,2.01c1.19,0.76,2.37,1.52,3.57,2.26c1.08,0.67,2.19,1.31,3.28,1.97    c1.21,0.73,2.41,1.46,3.64,2.18c1.14,0.66,2.31,1.3,3.47,1.96c1.21,0.69,2.41,1.38,3.63,2.05c1.2,0.65,2.42,1.29,3.63,1.93    c1.22,0.65,2.43,1.3,3.66,1.94c1.25,0.65,2.52,1.27,3.78,1.9c1.22,0.61,2.43,1.23,3.66,1.83c1.32,0.65,2.67,1.27,4.01,1.9    c1.2,0.56,2.39,1.14,3.6,1.69c1.39,0.64,2.8,1.25,4.2,1.87c1.19,0.52,2.37,1.06,3.57,1.58c1.46,0.62,2.94,1.23,4.42,1.85    c1.17,0.49,2.33,0.98,3.5,1.46c1.53,0.62,3.09,1.22,4.63,1.82c1.14,0.44,2.28,0.9,3.44,1.34c1.61,0.61,3.24,1.2,4.87,1.8    c1.11,0.4,2.22,0.82,3.34,1.22c1.69,0.6,3.41,1.18,5.12,1.77c1.07,0.36,2.14,0.74,3.22,1.1c1.78,0.59,3.58,1.16,5.37,1.73    c1.04,0.33,2.06,0.67,3.11,0.99c1.84,0.57,3.7,1.12,5.55,1.66c1.02,0.3,2.04,0.62,3.07,0.91c1.92,0.56,3.85,1.08,5.78,1.6    c0.98,0.27,1.95,0.55,2.94,0.81c2.02,0.54,4.05,1.05,6.09,1.56c0.92,0.23,1.83,0.47,2.75,0.7c2.1,0.51,4.22,1.01,6.33,1.49    c0.88,0.2,1.75,0.41,2.63,0.61c2.19,0.49,4.4,0.96,6.6,1.43c0.82,0.17,1.63,0.35,2.45,0.52c2.29,0.47,4.59,0.92,6.9,1.36    c0.75,0.14,1.5,0.3,2.26,0.43c2.37,0.44,4.75,0.86,7.14,1.27c0.71,0.12,1.41,0.25,2.12,0.37c2.46,0.41,4.92,0.79,7.4,1.17    c0.65,0.1,1.29,0.2,1.94,0.3c2.55,0.38,5.12,0.73,7.68,1.07c0.58,0.08,1.16,0.16,1.74,0.23c2.63,0.35,5.26,0.65,7.91,0.96    c0.54,0.06,1.08,0.13,1.62,0.19c2.71,0.3,5.44,0.58,8.17,0.84c0.47,0.04,0.94,0.1,1.41,0.14c2.79,0.26,5.59,0.49,8.4,0.71    c0.42,0.03,0.84,0.07,1.27,0.1c2.89,0.22,5.79,0.41,8.7,0.58c0.34,0.02,0.67,0.05,1.01,0.07c2.97,0.17,5.96,0.31,8.94,0.44    c0.28,0.01,0.56,0.02,0.85,0.04c3.05,0.12,6.1,0.22,9.16,0.28c0.23,0.01,0.46,0.02,0.69,0.02c3.11,0.07,6.23,0.11,9.35,0.13    c0.18,0,0.36,0.01,0.55,0.01c3.19,0.01,6.39,0,9.59-0.04c0.11-0.01,0.22-0.01,0.33-0.01c3.26-0.04,6.53-0.11,9.81-0.21    c0.06,0,0.11-0.01,0.17-0.01c3.33-0.1,6.66-0.23,9.99-0.39c0.01,0,0.01,0,0.02,0c5.7-0.28,11.41-0.64,17.14-1.09    c2.69-0.21,5.39-0.5,8.08-0.75c3.03-0.28,6.06-0.52,9.1-0.85c3.3-0.36,6.6-0.81,9.9-1.23c2.44-0.31,4.87-0.57,7.31-0.91    c3.62-0.5,7.24-1.1,10.86-1.68c2.12-0.34,4.24-0.63,6.36-0.99c3.84-0.65,7.68-1.41,11.52-2.15c1.89-0.36,3.78-0.69,5.68-1.07    c3.97-0.81,7.94-1.71,11.91-2.61c1.75-0.39,3.51-0.75,5.26-1.17c4.08-0.96,8.14-2.02,12.21-3.08c1.63-0.43,3.26-0.81,4.89-1.25    c4.15-1.12,8.28-2.34,12.41-3.56c1.53-0.46,3.07-0.87,4.6-1.34c4.18-1.28,8.35-2.65,12.51-4.04c1.47-0.49,2.94-0.94,4.4-1.44    c4.19-1.43,8.35-2.96,12.52-4.5c1.42-0.52,2.85-1.02,4.27-1.56c4.17-1.59,8.31-3.26,12.45-4.96c1.39-0.57,2.79-1.11,4.18-1.69    c4.12-1.73,8.22-3.56,12.3-5.41c1.39-0.62,2.78-1.22,4.16-1.86c4.05-1.87,8.06-3.83,12.07-5.82c1.4-0.69,2.8-1.35,4.19-2.06    c3.96-2.01,7.88-4.1,11.8-6.22c1.41-0.77,2.83-1.5,4.24-2.28c3.85-2.13,7.67-4.36,11.48-6.6c1.43-0.85,2.88-1.67,4.31-2.53    c3.74-2.25,7.43-4.59,11.11-6.96c2.45-1.57,4.93-3.09,7.36-4.71c2.62-1.74,5.21-3.51,7.81-5.31c0.03-0.02,0.07-0.05,0.1-0.07    c0.05-0.03,0.1-0.06,0.15-0.1c-14.29,6.46-28.48,12.42-42.55,17.88C674.03,316.13,591.06,330.91,518.91,331.45z"/>
		<path class="st4" d="M805.67,263.31c-0.1-0.14-0.24-0.27-0.4-0.38c-0.16-0.1-0.33-0.15-0.44-0.18c-0.21-0.05-0.66-0.05-0.96,0.09    c-14.09,6.37-28.38,12.37-42.47,17.84c-81.67,31.69-165.52,48.74-242.5,49.32c-1.37,0.02-2.77,0.02-4.13,0.02    c-94.53,0-174.04-24.39-218.14-66.91c-0.27-0.26-0.65-0.41-1.02-0.41H69.86c-0.58,0-1.1,0.33-1.34,0.85    c-0.24,0.52-0.14,1.13,0.26,1.56c45.29,47.92,102.47,85.16,169.96,110.66c56.62,21.41,120.48,34.2,184.69,36.99    c8.9,0.39,17.95,0.59,26.9,0.59c2.9,0,5.84-0.02,8.72-0.06c40.13-0.58,79.88-5.34,118.13-14.15c42.1-9.69,81.2-24.07,116.23-42.75    c44.87-23.92,82.62-54.65,112.18-91.34c0.01-0.01,0.02-0.02,0.02-0.03c0.01-0.01,0.02-0.02,0.02-0.03l0,0    c0.11-0.16,0.19-0.31,0.24-0.53l0.01,0c0.06-0.2,0.06-0.42,0.01-0.65C805.85,263.63,805.77,263.46,805.67,263.31z M434.56,325.48    c0.97,0.17,1.95,0.33,2.93,0.49c1.57,0.25,3.15,0.49,4.73,0.73l0.13,0.02c1.11,0.17,2.22,0.33,3.34,0.49    c1.62,0.23,3.26,0.44,4.89,0.65c1.14,0.15,2.29,0.3,3.44,0.44c1.69,0.21,3.39,0.4,5.17,0.59c1.1,0.12,2.19,0.24,3.3,0.36    c1.74,0.18,3.49,0.35,5.25,0.51l0.79,0.07c0.86,0.08,1.72,0.16,2.58,0.23c1.79,0.15,3.61,0.29,5.42,0.43    c1.11,0.08,2.21,0.16,3.32,0.24c1.85,0.13,3.72,0.24,5.59,0.34c1.1,0.06,2.2,0.12,3.3,0.18c1.9,0.09,3.82,0.17,5.74,0.25    l0.81,0.03c0.82,0.03,1.65,0.06,2.47,0.09c1.95,0.06,3.91,0.11,5.9,0.15c1.08,0.02,2.16,0.04,3.25,0.06c2,0.03,4,0.05,6.01,0.05    l1.49,0.01c1.49,0.01,2.98,0.01,4.49,0c77.2-0.58,161.3-17.68,243.18-49.46c13.56-5.26,27.28-11.01,40.84-17.11    c-29.21,35.83-66.35,65.91-110.43,89.41c-66.26,35.31-149.17,55.44-233.47,56.67c-4.08,0.05-8.19,0.09-12.38,0.02l-2.14-0.03    c-1.6-0.01-3.2-0.02-4.81-0.05c-6.15-0.11-11.29-0.26-16.19-0.47c-83.32-3.63-239.76-27.49-352.6-146.3h224.51    c1.25,1.21,2.58,2.44,3.95,3.67c0.17,0.15,0.35,0.31,0.53,0.46c0.17,0.14,0.33,0.28,0.49,0.42c1.08,0.95,2.15,1.89,3.27,2.82    c0.28,0.23,0.57,0.46,0.85,0.69l1.02,0.82c0.87,0.71,1.73,1.41,2.63,2.1c0.33,0.26,0.67,0.51,1.01,0.76l1.14,0.86    c0.85,0.64,1.69,1.28,2.56,1.91c0.36,0.26,0.74,0.52,1.11,0.78l1.06,0.74c0.9,0.64,1.81,1.28,2.73,1.91    c0.39,0.27,0.8,0.53,1.2,0.79l1.04,0.68c0.95,0.63,1.9,1.26,2.88,1.87c0.44,0.28,0.9,0.56,1.35,0.83l1.09,0.67    c0.95,0.59,1.9,1.17,2.87,1.75c0.46,0.27,0.93,0.54,1.4,0.81l1.43,0.82c0.89,0.51,1.78,1.02,2.68,1.53    c0.5,0.28,1.02,0.55,1.53,0.83l1.55,0.83c0.87,0.47,1.73,0.94,2.62,1.39c0.5,0.26,1.01,0.51,1.52,0.77l1.64,0.82    c0.9,0.45,1.8,0.91,2.72,1.35c0.56,0.27,1.14,0.54,1.71,0.81l1.44,0.67c0.97,0.46,1.94,0.91,2.92,1.36    c0.55,0.24,1.1,0.48,1.65,0.73l2.01,0.88c0.86,0.38,1.72,0.75,2.59,1.12c0.62,0.26,1.26,0.52,1.89,0.78l1.83,0.74    c0.9,0.37,1.8,0.73,2.72,1.09c0.67,0.26,1.34,0.52,2.02,0.77l1.49,0.57c1.03,0.39,2.05,0.78,3.09,1.16    c0.75,0.27,1.51,0.54,2.27,0.81l1.2,0.42c1.1,0.39,2.2,0.78,3.31,1.16c0.77,0.26,1.55,0.52,2.34,0.77l1.58,0.52    c1,0.33,2.01,0.66,3.03,0.98c0.83,0.26,1.66,0.51,2.5,0.77l1.91,0.58c0.9,0.27,1.8,0.55,2.71,0.81c0.95,0.27,1.91,0.54,2.87,0.81    l0.86,0.24c1.18,0.33,2.35,0.66,3.55,0.98c1.12,0.3,2.25,0.58,3.38,0.87l1.16,0.3c0.96,0.25,1.92,0.49,2.9,0.73    c1.3,0.32,2.6,0.62,3.99,0.94l0.7,0.16c0.96,0.23,1.92,0.45,2.89,0.67c1.36,0.3,2.74,0.59,4.2,0.9l0.48,0.1    c1.02,0.21,2.03,0.43,3.06,0.64c1.45,0.29,2.91,0.57,4.38,0.85l0.74,0.14c0.92,0.18,1.84,0.35,2.77,0.52    c1.43,0.26,2.87,0.5,4.31,0.75L434.56,325.48z"/>
	</g>
</g>
<template xmlns="" id="transover-popup-template">
  <style>
    .pos_translation {
      padding-bottom: 3px;
    }

    strong {
      font-weight: bold;
    }

    .rtl {
      direction: rtl;
    }

    main {
      color: #333;
      font-family: Arial, sans-serif;
      font-size: 14px;
      font-weight: 300;
      letter-spacing: initial;

      background: #fcf7d9;
      text-align: left;
      border-style: solid;
      border-width: 1px;
      border-color: #ccc;
      box-shadow: rgba(0,0,0,0.2) 0px 2px 5px;
      border-radius: 5px;
      padding: 6px 8px 3px 8px;
      position: fixed;
      z-index: 2147483647;
      top: -1500px;
      left: 0;
      box-sizing: content-box;
      -webkit-font-smoothing: antialiased;
      font-smoothing: antialiased;
      text-rendering: optimizeLegibility;

      /* To fix the following issue:
      1. Have translate on hover enabled (opposed to translate on click).
      2. Wisit a website that has a dropdown menu that opens on hover.
      3. Open the menu.
      4. Hover over a word within that menu.
      5. Incidentally move the cursor over the TransOver popup.
      The hover menu gets closed.
      */
      pointer-events: none;
    }

    .pos_translation {
      font-size: 1em;
      line-height: 1.2em;
    }

    .red {
      color: red;
    }

    .from_lang {
      color: grey;
      font-size: 0.8em;
      line-height: 1.2em;
      margin-top: 2px;
      margin-bottom: 3px;
    }
  </style>

  <main translate="no"/>
</template></svg>